/* XPM */
static char * bitcoin16_xpm[] = {
"16 14 101 2",
"  	c None",
". 	c #52FFFE",
"+ 	c #52FFFF",
"@ 	c #4FFDFF",
"# 	c #4EFCFE",
"$ 	c #51FFFF",
"% 	c #49F7FF",
"& 	c #4AF8FF",
"* 	c #4CFFFF",
"= 	c #0F5C6F",
"- 	c #0A4F63",
"; 	c #4AF8FE",
"> 	c #44F2FF",
", 	c #2AA9BA",
"' 	c #002B42",
") 	c #002D44",
"! 	c #2292A4",
"~ 	c #3CEAFF",
"{ 	c #001F33",
"] 	c #00525C",
"^ 	c #005963",
"/ 	c #005C66",
"( 	c #005A64",
"_ 	c #003948",
": 	c #35E4FF",
"< 	c #21A1BB",
"[ 	c #001F30",
"} 	c #00F5FF",
"| 	c #00E6EF",
"1 	c #00E3ED",
"2 	c #00E7F0",
"3 	c #00F6FF",
"4 	c #006E7B",
"5 	c #1A87A1",
"6 	c #36E4FF",
"7 	c #2CDAFF",
"8 	c #2EDCFE",
"9 	c #2EDBFD",
"0 	c #012638",
"a 	c #00E8FF",
"b 	c #005D6E",
"c 	c #004658",
"d 	c #002031",
"e 	c #00AFC5",
"f 	c #00C8E0",
"g 	c #013145",
"h 	c #2EDAFD",
"i 	c #27D5FE",
"j 	c #27D5FF",
"k 	c #27D4FE",
"l 	c #032F41",
"m 	c #00D1FE",
"n 	c #00C7F3",
"o 	c #00BBE5",
"p 	c #005167",
"q 	c #00CFFC",
"r 	c #002131",
"s 	c #013850",
"t 	c #26D4FE",
"u 	c #1FCDFF",
"v 	c #19ACD8",
"w 	c #002030",
"x 	c #00C2FF",
"y 	c #003D55",
"z 	c #002D40",
"A 	c #00C4FF",
"B 	c #00A4DB",
"C 	c #0083B3",
"D 	c #005A7B",
"E 	c #1497BF",
"F 	c #17C5FF",
"G 	c #002231",
"H 	c #006793",
"I 	c #00334B",
"J 	c #003952",
"K 	c #006D9B",
"L 	c #006997",
"M 	c #006692",
"N 	c #004766",
"O 	c #17C6FF",
"P 	c #10BEFF",
"Q 	c #0FB5F2",
"R 	c #0FB3EF",
"S 	c #0776A2",
"T 	c #002E44",
"U 	c #002E43",
"V 	c #06658A",
"W 	c #0FB3F0",
"X 	c #0FB4F1",
"Y 	c #0AB8FF",
"Z 	c #0BBEFF",
"` 	c #01415E",
" .	c #003A54",
"..	c #0BBCFF",
"+.	c #0AB8FE",
"@.	c #05B3FF",
"#.	c #05B3FE",
"$.	c #05B6FF",
"%.	c #05B7FF",
"&.	c #02B0FE",
"*.	c #02B0FF",
"        .             +         ",
"        @   # $ + #   @         ",
"        % & * = - * ; %         ",
"      > > > , ' ) ! > > >       ",
"    ~   { ] ^ / / ( ] _   ~     ",
"    : < [ } | 1 1 2 3 4 5 6     ",
"  7 8 9 0 a b c d e f g h 8 7   ",
"i j i k l m n o p q r s t j j j ",
"    u v w x y z A B C D E u     ",
"    F   G H I J K L M N   O     ",
"      P Q R S T U V W X P       ",
"        Y Y Z `  ...Y +.        ",
"        @.@.#.$.%.#.@.@.        ",
"        &.            *.        "};
