/* XPM */
static char * bitcoin32_xpm[] = {
"32 29 260 2",
"  	c None",
". 	c #51FFFE",
"+ 	c #51FFFF",
"@ 	c #50FEFF",
"# 	c #51FEFF",
"$ 	c #4FFDFF",
"% 	c #4FFDFE",
"& 	c #4EFCFF",
"* 	c #4EFCFE",
"= 	c #4DFBFF",
"- 	c #4DFBFE",
"; 	c #4BF9FE",
"> 	c #4BF9FF",
", 	c #44E7EE",
"' 	c #3ACBD5",
") 	c #48F6FF",
"! 	c #4AFAFF",
"~ 	c #0E596D",
"{ 	c #003148",
"] 	c #003249",
"^ 	c #064359",
"/ 	c #4CFFFF",
"( 	c #45F3FF",
"_ 	c #45F3FE",
": 	c #33C0CE",
"< 	c #002E45",
"[ 	c #002E46",
"} 	c #218D9F",
"| 	c #43F1FF",
"1 	c #43F0FE",
"2 	c #43F3FF",
"3 	c #45F7FF",
"4 	c #033E54",
"5 	c #003248",
"6 	c #01364C",
"7 	c #42F1FF",
"8 	c #40EEFE",
"9 	c #3DE4F5",
"0 	c #2399AC",
"a 	c #2499AB",
"b 	c #2496A6",
"c 	c #2496A7",
"d 	c #1C7B8D",
"e 	c #00263A",
"f 	c #00283B",
"g 	c #00273B",
"h 	c #0B4C5F",
"i 	c #2495A6",
"j 	c #2498AB",
"k 	c #36D0E2",
"l 	c #3CEAFF",
"m 	c #3CEAFE",
"n 	c #002F44",
"o 	c #003746",
"p 	c #007B83",
"q 	c #007B81",
"r 	c #007B82",
"s 	c #008289",
"t 	c #002638",
"u 	c #002F46",
"v 	c #38E6FF",
"w 	c #34DBF3",
"x 	c #002D42",
"y 	c #004D59",
"z 	c #00FDFF",
"A 	c #00FAFE",
"B 	c #00FAFF",
"C 	c #00FFFF",
"D 	c #002130",
"E 	c #002F45",
"F 	c #23A3BB",
"G 	c #35E3FF",
"H 	c #36E9FF",
"I 	c #095169",
"J 	c #004B58",
"K 	c #00F6FF",
"L 	c #00F4FE",
"M 	c #00F5FF",
"N 	c #00F2FD",
"O 	c #00F4FF",
"P 	c #00CCD6",
"Q 	c #001E2F",
"R 	c #023950",
"S 	c #37EAFF",
"T 	c #32E0FE",
"U 	c #27BDDA",
"V 	c #002438",
"W 	c #004A58",
"X 	c #00EFFF",
"Y 	c #00EDFF",
"Z 	c #005662",
"` 	c #001825",
" .	c #001C2B",
"..	c #001D2D",
"+.	c #001F30",
"@.	c #001E2D",
"#.	c #00141F",
"$.	c #00D6E7",
"%.	c #00F8FF",
"&.	c #003342",
"*.	c #00293D",
"=.	c #1E9AB5",
"-.	c #32E0FF",
";.	c #2DDBFE",
">.	c #2DDBFF",
",.	c #2EDCFF",
"'.	c #2FE1FF",
").	c #0F6882",
"!.	c #004858",
"~.	c #00E6FF",
"{.	c #00E4FF",
"].	c #007386",
"^.	c #004454",
"/.	c #004758",
"(.	c #004354",
"_.	c #002739",
":.	c #002435",
"<.	c #00687A",
"[.	c #00E5FF",
"}.	c #006779",
"|.	c #002538",
"1.	c #074C65",
"2.	c #2FE2FF",
"3.	c #29D7FF",
"4.	c #29D7FE",
"5.	c #25C4E9",
"6.	c #003D4F",
"7.	c #00DCFF",
"8.	c #00DAFE",
"9.	c #00DFFF",
"0.	c #00E2FF",
"a.	c #00BDDD",
"b.	c #001826",
"c.	c #002E3E",
"d.	c #00E3FF",
"e.	c #00DAFF",
"f.	c #00C6E8",
"g.	c #002434",
"h.	c #002B40",
"i.	c #1FAED1",
"j.	c #26D4FE",
"k.	c #26D4FF",
"l.	c #27D5FF",
"m.	c #27D6FF",
"n.	c #1589A9",
"o.	c #004257",
"p.	c #00D3FF",
"q.	c #00D1FF",
"r.	c #00CEFC",
"s.	c #00CDFA",
"t.	c #00ACD3",
"u.	c #000C14",
"v.	c #00AAD1",
"w.	c #00D0FE",
"x.	c #00D2FF",
"y.	c #002C40",
"z.	c #0E6F8D",
"A.	c #28D9FF",
"B.	c #22D0FF",
"C.	c #22D0FE",
"D.	c #21CDFB",
"E.	c #00283C",
"F.	c #004258",
"G.	c #00CAFF",
"H.	c #00C8FF",
"I.	c #00465C",
"J.	c #00111C",
"K.	c #001521",
"L.	c #00111B",
"M.	c #005C78",
"N.	c #007192",
"O.	c #001F2D",
"P.	c #00273A",
"Q.	c #002A3D",
"R.	c #002639",
"S.	c #1CB5E0",
"T.	c #1FCDFE",
"U.	c #1FCDFF",
"V.	c #20CFFF",
"W.	c #0A6788",
"X.	c #004058",
"Y.	c #00C1FF",
"Z.	c #00BFFF",
"`.	c #004E6B",
" +	c #002B3F",
".+	c #00C6FF",
"++	c #00B8F6",
"@+	c #005E7F",
"#+	c #006386",
"$+	c #006589",
"%+	c #006A90",
"&+	c #06506B",
"*+	c #20D2FF",
"=+	c #1CCAFE",
"-+	c #1CCAFF",
";+	c #18BBED",
">+	c #002C42",
",+	c #003E58",
"'+	c #00BAFF",
")+	c #00B8FF",
"!+	c #004D6B",
"~+	c #002B3E",
"{+	c #00709B",
"]+	c #002637",
"^+	c #1296C2",
"/+	c #1BC9FF",
"(+	c #18C6FF",
"_+	c #18C6FE",
":+	c #002E43",
"<+	c #00A5EC",
"[+	c #00A4EA",
"}+	c #00496A",
"|+	c #006793",
"1+	c #00A5EA",
"2+	c #00ACF5",
"3+	c #00283A",
"4+	c #003046",
"5+	c #013D57",
"6+	c #01344A",
"7+	c #012C3F",
"8+	c #012C3E",
"9+	c #012D42",
"0+	c #002131",
"a+	c #012D40",
"b+	c #013850",
"c+	c #11BFFF",
"d+	c #11C0FF",
"e+	c #12C6FF",
"f+	c #12C5FF",
"g+	c #00354D",
"h+	c #0FB1ED",
"i+	c #11C1FF",
"j+	c #11BFFE",
"k+	c #10BEFF",
"l+	c #0DBBFF",
"m+	c #0EBCFF",
"n+	c #0EBCFE",
"o+	c #066D98",
"p+	c #035172",
"q+	c #0BB9FF",
"r+	c #0BB9FE",
"s+	c #0CC1FF",
"t+	c #003C56",
"u+	c #00324A",
"v+	c #0BBAFF",
"w+	c #08B6FF",
"x+	c #08B6FE",
"y+	c #0586BD",
"z+	c #002E44",
"A+	c #003047",
"B+	c #036894",
"C+	c #05B3FE",
"D+	c #06B4FF",
"E+	c #06B4FE",
"F+	c #05B3FF",
"G+	c #04B2FF",
"H+	c #04B2FE",
"I+	c #03B1FF",
"J+	c #02B0FE",
"K+	c #02B0FF",
"                                                                ",
"                . .       + .     + @       # .                 ",
"              $ % $ &     % $ *   % $ &   & $ $ $               ",
"                = = =   = = =     = = =   = = -                 ",
"                  ; > > ; ; ,     ' ; ; > ; > >                 ",
"                  ) ) ) ) ! ~ { ] ^ / ) ) ) )                   ",
"          ( ( ( ( ( ( ( _ : < ] ] [ } _ ( ( ( ( ( ( _           ",
"          | | 1 2 2 2 2 3 4 5 5 5 5 6 7 2 2 2 2 | | |           ",
"            8 9 0 a b c d e f f f f g h c i c j k 8             ",
"        l m   ] n o p q q q q q r q q q q q s t u   m l         ",
"      v v v w < x y z A B B B B B B B B A B C D E F v v v       ",
"        G G H I x J K L M K K M K K K N O L P Q R S G G         ",
"        T T T U V W X Y Z `  ...+.@.#.$.Y %.&.*.=.-.-.-.        ",
"  ;.;.>.>.,.,.'.).!.~.{.].^./.(._.:.<.[.{.}.|.1.2.,.,.>.;.;.>.  ",
"  3.3.3.3.3.3.4.5.6.7.8.9.0.0.a.b.c.d.e.f.g.h.i.4.3.3.3.3.3.3.3.",
"  j.j.k.k.l.l.m.n.o.p.q.r.s.s.t.u.v.w.x.g.y.{ z.A.l.l.k.k.j.k.  ",
"          B.C.D.E.F.G.H.I.J.K.L.M.G.H.N.O.P.Q.R.S.C.B.          ",
"        T.U.V.W.x X.Y.Z.`.f  +g..+Z.++@+#+$+%+f &+*+U.U.        ",
"        =+-+;+>+x ,+'+)+!+~+ +{+)+)+)+)+)+)+Y.]+>+^+-+-+/+      ",
"        (+_+  5 :+,+<+[+}+y.y.|+1+[+[+[+[+[+2+3+4+  (+_+_+      ",
"                5+6+7+8+9+E E _.0+D D D 8+8+a+b+                ",
"            c+d+e+e+e+e+f+g+] { { { { h+e+e+e+e+i+j+k+          ",
"          l+m+m+m+m+m+m+n+o+4+] ] { p+m+m+m+m+m+m+m+m+          ",
"            q+r+q+q+q+q+q+s+t+] ] u+v+q+q+q+r+q+q+q+            ",
"                  w+w+w+x+x+y+z+A+B+w+w+w+w+x+                  ",
"                C+D+D+D+D+D+E+    C+E+D+  E+D+F+                ",
"                G+G+G+  H+G+G+I+  G+G+G+  H+H+G+J+              ",
"                J+K+      K+J+    K+J+      K+K+                ",
"                                                                "};
