/* XPM */
static char * bitcoin64_xpm[] = {
"64 58 478 2",
"  	c None",
". 	c #51FFFF",
"+ 	c #51FEFE",
"@ 	c #50FEFF",
"# 	c #50FEFE",
"$ 	c #4FFDFF",
"% 	c #4FFDFE",
"& 	c #4EFCFF",
"* 	c #4EFCFE",
"= 	c #4DFBFE",
"- 	c #4DFBFF",
"; 	c #4CFAFE",
"> 	c #4CFAFF",
", 	c #4BF9FF",
"' 	c #4BF9FE",
") 	c #4DFEFF",
"! 	c #4FFFFF",
"~ 	c #4AF8FF",
"{ 	c #4AF8FE",
"] 	c #136477",
"^ 	c #003148",
"/ 	c #003248",
"( 	c #003249",
"_ 	c #033B52",
": 	c #4BFBFF",
"< 	c #48F6FF",
"[ 	c #45EEF6",
"} 	c #003047",
"| 	c #208A9A",
"1 	c #49F7FF",
"2 	c #48F6FE",
"3 	c #47F5FE",
"4 	c #054156",
"5 	c #00334A",
"6 	c #47F3FC",
"7 	c #46F4FF",
"8 	c #36CAD7",
"9 	c #105D71",
"0 	c #47F6FF",
"a 	c #45F3FE",
"b 	c #45F3FF",
"c 	c #43EEFB",
"d 	c #002F46",
"e 	c #3CDAE8",
"f 	c #44F2FF",
"g 	c #43F1FF",
"h 	c #44F3FF",
"i 	c #28A4B5",
"j 	c #07455B",
"k 	c #43F1FE",
"l 	c #41EFFF",
"m 	c #41EFFE",
"n 	c #3DE4F4",
"o 	c #00263D",
"p 	c #2AACBD",
"q 	c #42F1FF",
"r 	c #40EEFE",
"s 	c #40EEFF",
"t 	c #41F0FF",
"u 	c #3DE4F5",
"v 	c #3EE8F8",
"w 	c #197B8E",
"x 	c #002E43",
"y 	c #002339",
"z 	c #3BDEEE",
"A 	c #40ECFC",
"B 	c #002D44",
"C 	c #002B41",
"D 	c #00293E",
"E 	c #002639",
"F 	c #002336",
"G 	c #002234",
"H 	c #002233",
"I 	c #002637",
"J 	c #002638",
"K 	c #002335",
"L 	c #002536",
"M 	c #00273B",
"N 	c #002A3F",
"O 	c #00273E",
"P 	c #3CEAFE",
"Q 	c #3DEBFF",
"R 	c #3BE9FF",
"S 	c #002D42",
"T 	c #00283B",
"U 	c #002031",
"V 	c #001B29",
"W 	c #001926",
"X 	c #001826",
"Y 	c #001A26",
"Z 	c #001928",
"` 	c #001D2C",
" .	c #002B40",
"..	c #002F45",
"+.	c #3DEBFE",
"@.	c #3BE9FE",
"#.	c #003046",
"$.	c #002C3F",
"%.	c #00AAAF",
"&.	c #00F3F4",
"*.	c #00F3F5",
"=.	c #00FEFE",
"-.	c #002635",
";.	c #00293B",
">.	c #002F44",
",.	c #39E7FE",
"'.	c #39E7FF",
").	c #003045",
"!.	c #002A3E",
"~.	c #001F2F",
"{.	c #00AEB3",
"].	c #00FCFF",
"^.	c #00FFFF",
"/.	c #002432",
"(.	c #002739",
"_.	c #37E5FF",
":.	c #1F96AE",
"<.	c #002E45",
"[.	c #00293D",
"}.	c #001E2D",
"|.	c #00ACB3",
"1.	c #00F9FF",
"2.	c #002431",
"3.	c #06465E",
"4.	c #37E5FE",
"5.	c #35E3FE",
"6.	c #35E3FF",
"7.	c #38EEFF",
"8.	c #044158",
"9.	c #00A9B3",
"0.	c #00F6FF",
"a.	c #00F6FE",
"b.	c #00EAF3",
"c.	c #001F2E",
"d.	c #2ECCE6",
"e.	c #33E1FF",
"f.	c #33E1FE",
"g.	c #23A9C5",
"h.	c #00A7B3",
"i.	c #00F2FF",
"j.	c #00E9F5",
"k.	c #00B5C1",
"l.	c #00B8C5",
"m.	c #00BAC5",
"n.	c #00BAC6",
"o.	c #00BBC8",
"p.	c #00B7C3",
"q.	c #00B3BE",
"r.	c #00E7F4",
"s.	c #00F2FE",
"t.	c #00F5FF",
"u.	c #00313F",
"v.	c #002433",
"w.	c #002B3F",
"x.	c #0E627B",
"y.	c #34E3FF",
"z.	c #31DFFF",
"A.	c #33E5FF",
"B.	c #0B5972",
"C.	c #00A4B3",
"D.	c #00EEFF",
"E.	c #00CDDC",
"F.	c #000B14",
"G.	c #001925",
"H.	c #001C29",
"I.	c #001E2C",
"J.	c #001F2D",
"K.	c #00202E",
"L.	c #001D2A",
"M.	c #001924",
"N.	c #00141D",
"O.	c #003E47",
"P.	c #00F8FF",
"Q.	c #0097A5",
"R.	c #001D2B",
"S.	c #00283A",
"T.	c #002D43",
"U.	c #002E44",
"V.	c #31E0FF",
"W.	c #29C5E4",
"X.	c #00283D",
"Y.	c #00A2B3",
"Z.	c #00EBFF",
"`.	c #00CADC",
" +	c #000D16",
".+	c #001C28",
"++	c #00202F",
"@+	c #002130",
"#+	c #002131",
"$+	c #002232",
"%+	c #002435",
"&+	c #002333",
"*+	c #000E16",
"=+	c #00D7EA",
"-+	c #00EBFE",
";+	c #00E6FA",
">+	c #001E2B",
",+	c #002C40",
"'+	c #17839E",
")+	c #2EDCFE",
"!+	c #2EDCFF",
"~+	c #2DDBFF",
"{+	c #2FDDFF",
"]+	c #30E0FF",
"^+	c #137893",
"/+	c #009FB3",
"(+	c #00E6FF",
"_+	c #00C6DC",
":+	c #000C14",
"<+	c #00212F",
"[+	c #002B3E",
"}+	c #002A3D",
"|+	c #001D29",
"1+	c #00A6BB",
"2+	c #00E7FF",
"3+	c #002F3C",
"4+	c #002231",
"5+	c #023A52",
"6+	c #30E3FF",
"7+	c #2FDDFE",
"8+	c #2DDBFE",
"9+	c #2CDAFE",
"0+	c #2CDAFF",
"a+	c #2BD4F8",
"b+	c #009CB3",
"c+	c #00E2FF",
"d+	c #00E1FF",
"e+	c #00D3F0",
"f+	c #00859A",
"g+	c #008BA0",
"h+	c #008BA2",
"i+	c #008CA2",
"j+	c #008DA4",
"k+	c #005F73",
"l+	c #002334",
"m+	c #00293C",
"n+	c #003240",
"o+	c #00E1FE",
"p+	c #00E3FF",
"q+	c #009EB6",
"r+	c #002C42",
"s+	c #1EA6C6",
"t+	c #2AD8FF",
"u+	c #2AD8FE",
"v+	c #2ADAFF",
"w+	c #1A96B5",
"x+	c #0099B3",
"y+	c #00DDFF",
"z+	c #00DCFF",
"A+	c #00DFFF",
"B+	c #008AA3",
"C+	c #001A28",
"D+	c #00D4F5",
"E+	c #00DCFE",
"F+	c #00CEEE",
"G+	c #001521",
"H+	c #08516A",
"I+	c #2BDEFF",
"J+	c #28D6FF",
"K+	c #28D6FE",
"L+	c #25C6EC",
"M+	c #0095B3",
"N+	c #00D8FF",
"O+	c #00859F",
"P+	c #001B28",
"Q+	c #00819C",
"R+	c #00485B",
"S+	c #002A3C",
"T+	c #1BA1C4",
"U+	c #29D7FF",
"V+	c #27D5FF",
"W+	c #28DAFF",
"X+	c #0E6781",
"Y+	c #0093B3",
"Z+	c #00D3FF",
"`+	c #00819E",
" @	c #001622",
".@	c #00303F",
"+@	c #00D6FF",
"@@	c #00D3FE",
"#@	c #00D4FF",
"$@	c #0090B0",
"%@	c #003147",
"&@	c #27D4FD",
"*@	c #27D5FE",
"=@	c #25D3FF",
"-@	c #25D3FE",
";@	c #1DB1D9",
">@	c #0090B3",
",@	c #00CEFF",
"'@	c #00CDFD",
")@	c #00C9F8",
"!@	c #007C9B",
"~@	c #00151E",
"{@	c #00C8F8",
"]@	c #00CEFE",
"^@	c #00CAFA",
"/@	c #001621",
"(@	c #127FA0",
"_@	c #26D5FF",
":@	c #22D0FE",
"<@	c #22D0FF",
"[@	c #24D7FF",
"}@	c #064C66",
"|@	c #008CB3",
"1@	c #00CAFF",
"2@	c #00C9FF",
"3@	c #00ADDB",
"4@	c #000A11",
"5@	c #001721",
"6@	c #001B26",
"7@	c #001722",
"8@	c #00131C",
"9@	c #006683",
"0@	c #00475D",
"a@	c #20C5F1",
"b@	c #21CFFF",
"c@	c #21CEFE",
"d@	c #1391B7",
"e@	c #008AB3",
"f@	c #00C6FF",
"g@	c #00ABDC",
"h@	c #001119",
"i@	c #003244",
"j@	c #00CCFF",
"k@	c #00C6FE",
"l@	c #0082A9",
"m@	c #00121A",
"n@	c #002230",
"o@	c #002535",
"p@	c #002738",
"q@	c #085B79",
"r@	c #22D3FF",
"s@	c #1FCDFE",
"t@	c #20CEFF",
"u@	c #21D6FF",
"v@	c #013951",
"w@	c #0087B3",
"x@	c #00C1FF",
"y@	c #00A7DD",
"z@	c #00151F",
"A@	c #001018",
"B@	c #00ABE3",
"C@	c #00C1FE",
"D@	c #000B10",
"E@	c #00080E",
"F@	c #000D14",
"G@	c #00121B",
"H@	c #00131D",
"I@	c #18A6D1",
"J@	c #20CDFE",
"K@	c #1ECCFE",
"L@	c #1ECCFF",
"M@	c #0C7092",
"N@	c #0084B3",
"O@	c #00BDFF",
"P@	c #00A4DD",
"Q@	c #006D95",
"R@	c #00C0FF",
"S@	c #00BAFA",
"T@	c #00B8F8",
"U@	c #00B9F8",
"V@	c #00BEFF",
"W@	c #002C3E",
"X@	c #03435D",
"Y@	c #1FD3FF",
"Z@	c #1BC9FF",
"`@	c #1CCAFF",
" #	c #1BC5F8",
".#	c #0082B3",
"+#	c #00BAFF",
"@#	c #00A1DD",
"##	c #001822",
"$#	c #00273A",
"%#	c #00141F",
"&#	c #00B7FC",
"*#	c #00BAFE",
"=#	c #002E42",
"-#	c #1088B0",
";#	c #1CCAFE",
">#	c #1AC8FF",
",#	c #086688",
"'#	c #0080B3",
")#	c #00B6FF",
"!#	c #009EDD",
"~#	c #00B4FC",
"{#	c #00BCFF",
"]#	c #002839",
"^#	c #013850",
"/#	c #1AC9FF",
"(#	c #1AC8FE",
"_#	c #19C7FF",
":#	c #18C6FE",
"<#	c #18C6FF",
"[#	c #0080B5",
"}#	c #00B4FF",
"|#	c #009DDF",
"1#	c #00141E",
"2#	c #00B3FD",
"3#	c #16C4FE",
"4#	c #16C4FF",
"5#	c #005D85",
"6#	c #007AAF",
"7#	c #0079AE",
"8#	c #006D9D",
"9#	c #007EB5",
"0#	c #15C3FF",
"a#	c #002434",
"b#	c #002C41",
"c#	c #15C3FE",
"d#	c #055D7F",
"e#	c #055D80",
"f#	c #045473",
"g#	c #055272",
"h#	c #055270",
"i#	c #05516F",
"j#	c #055473",
"k#	c #01344B",
"l#	c #044B67",
"m#	c #05526F",
"n#	c #045373",
"o#	c #055C7E",
"p#	c #0A7BA6",
"q#	c #11BFFF",
"r#	c #11C2FF",
"s#	c #11C3FF",
"t#	c #0C99CD",
"u#	c #12C7FF",
"v#	c #11C0FF",
"w#	c #10BEFF",
"x#	c #10C0FF",
"y#	c #013F5A",
"z#	c #0EADE9",
"A#	c #10BEFE",
"B#	c #0EBCFF",
"C#	c #0CA8E4",
"D#	c #066991",
"E#	c #0EBFFF",
"F#	c #0CBAFF",
"G#	c #0DBCFF",
"H#	c #014664",
"I#	c #0CB4F6",
"J#	c #0CBAFE",
"K#	c #0BB9FF",
"L#	c #0BB9FE",
"M#	c #0BB7FB",
"N#	c #00324A",
"O#	c #0782B5",
"P#	c #0BBAFF",
"Q#	c #0AB8FF",
"R#	c #0AB8FE",
"S#	c #046189",
"T#	c #00344C",
"U#	c #09B6FD",
"V#	c #09B7FF",
"W#	c #09B8FF",
"X#	c #003750",
"Y#	c #079FDE",
"Z#	c #07B5FE",
"`#	c #07B5FF",
" $	c #0488C0",
".$	c #015174",
"+$	c #07B6FF",
"@$	c #06B4FF",
"#$	c #06B4FE",
"$$	c #06B5FF",
"%$	c #05B3FF",
"&$	c #04B2FF",
"*$	c #05B3FE",
"=$	c #04B2FE",
"-$	c #03B1FE",
";$	c #03B1FF",
">$	c #02B0FF",
",$	c #02B0FE",
"'$	c #01AFFF",
")$	c #01AFFE",
"!$	c #00AEFF",
"~$	c #00AEFE",
"                                                                                                                                ",
"                                                                                                                                ",
"                                . . . +                                                 . + . +                                 ",
"                                @ @ @ @ @           @ # # @         # # # @             @ @ @ @ #                               ",
"                              @ @ @ @ # @           @ @ @ @ @     # @ @ @ @ @         @ # @ @ @ @                               ",
"                              $ $ $ $ $ $ $       $ $ $ $ $ $     % $ $ $ $ %         $ $ $ $ $ %                               ",
"                                & & & & & *     = * & & & & *     - & & & & & -     & & & & & * -                               ",
"                                ; > > > > > =   - > > > > >         > > > > > =   > > > > > > >                                 ",
"                                  , , , , , , , , , , , ' )         ! ' , , , , , , , , , , '                                   ",
"                                    ~ ~ ~ ~ ~ ~ ~ ~ ~ { , ] ^ / / ( _ : ~ ~ ~ ~ ~ ~ ~ ~ ~ ~ {                                   ",
"                                    < < < < < < < < < < [ ^ ( ( ( ( } | 1 < < < < < < < < <                                     ",
"                        < < < < < < 2 < < < < < < < < 3 4 ^ ( ( ( ( ( 5 6 2 < < < < < < < < < < < < < <                         ",
"                      7 7 7 7 7 7 7 7 7 7 7 7 7 7 7 7 8 ^ ( ( ( ( ( ( ^ 9 0 7 7 7 7 7 7 7 7 7 7 7 7 7 7 7                       ",
"                      a b b b b b b b b b b b b b a c 5 ^ ( ( ( ( ( ( ( d e b b b b b b b b b b b b b b b f                     ",
"                      g g g g g g g g g g g g g g h i ^ ( ( ( ( ( ( ( ( ( j f k g g g g g g g g g g g g g g                     ",
"                      l l l l l l l l l l l l l m n o ^ ^ ^ ^ ^ ^ ^ ^ ^ ^ } p q l l l l l l l l l l l l l                       ",
"                        r s s t n u u u n n n n v w x x x x x x x x x x x x y z n n n n n n u n A s s s r                       ",
"                                B C D E F G G G H I J J J J J J J J J J J J J K G G G G K L M N O                               ",
"                P Q Q R       ( } S T U V W W X X X X X X X X X X X X X X X X X X X X Y Z ` I  ...      R Q Q +.                ",
"              R R R @.R       ( #.$.H %.&.&.&.&.&.&.&.&.&.&.&.&.*.&.&.&.&.&.&.&.&.&.&.&.&.=.-.;.>.^     @.R R R R               ",
"              ,.'.'.'.,.'.  ( ( ).!.~.{.].].].].].].].].].].].].].].].].].].].].].].].].].^./.(.x ^   ,.'.'.'.'.'.'.            ",
"              _._._._._._.:.<.( ).[.}.|.1.1.1.1.1.1.1.1.1.1.1.1.1.1.1.1.1.1.1.1.1.1.1.1.1.^.2.(.x ^ 3._._._._._.4.              ",
"              5.6.6.6.6.6.7.8.( ).[.}.9.0.0.0.0.0.0.0.0.0.0.0.0.0.0.0.0.0.0.0.0.0.0.0.0.a.b.c.;.>.d d.5.6.6.6.5.6.              ",
"                e.f.e.e.e.f.g.B ).[.}.h.i.i.i.i.j.k.l.m.n.n.n.n.o.n.n.n.l.p.q.r.i.i.i.s.t.u.v.w...x.y.e.e.e.e.e.                ",
"                  z.z.z.z.z.A.B.).[.}.C.D.D.D.D.E.F.G.H.I.I.I.J.J.K.J.L.M.N.O.P.D.D.D.D.Q.R.S.T.U.V.z.z.z.z.z.z.                ",
"                  z.z.z.z.z.z.W.X.[.J.Y.Z.Z.Z.Z.`. +.+++@+#+$+%+I S.(.&+L.*+=+Z.Z.Z.-+;+>+L ,+U.'+z.z.z.z.z.z.                  ",
"    )+!+!+!+!+!+~+)+{+{+{+{+{+]+^+[.J./+(+(+(+(+_+:+W L.I.J.<+&+S.[+}+%+|+1+2+(+(+(+2+3+4+[.>.5+6+7+{+{+{+{+!+~+!+!+!+!+!+8+    ",
"    9+0+0+0+0+0+0+0+0+0+0+0+0+9+a+G J.b+c+d+d+d+e+f+g+h+h+i+j+k+l+m+S.#+n+c+o+d+d+p+q+}.(.S r+s+0+0+0+0+0+0+0+0+0+0+0+0+0+0+    ",
"  t+u+t+t+t+t+t+t+t+t+t+t+t+t+t+v+w+I.x+y+z+z+z+y+A+A+A+A+A+A+B+` L $+C+D+z+z+z+E+F+G+%+$.).H+I+t+t+t+t+t+t+t+t+t+t+t+t+t+t+u+  ",
"  J+J+J+J+J+J+J+J+J+J+J+J+J+J+J+K+L+W M+N+N+N+N+N+N+N+N+N+N+N+O+W c.P+Q+N+N+N+N+y+R+4+S+U.} T+U+J+J+J+J+J+J+J+J+J+J+J+J+J+J+J+  ",
"  V+V+V+V+V+V+V+V+V+V+V+V+V+V+V+W+X+J.Y+Z+Z+Z+Z+Z+Z+Z+Z+Z+Z+Z+`+ @Y .@+@@@Z+Z+#@$@C+(.S %@^ <.&@*@V+V+V+V+V+V+V+V+V+V+V+V+*@V+  ",
"    =@-@-@-@-@-@=@=@=@=@=@=@=@=@;@K J.>@,@,@,@,@'@)@)@)@)@)@)@!@N.~@{@]@,@,@]@^@/@l+N ..} ^ ^ (@_@=@=@=@=@=@=@=@-@-@-@-@-@=@    ",
"                    :@<@<@<@<@[@}@[.J.|@1@2@2@2@3@4@5@M.6@Y M.7@8@9@1@2@2@2@,@0@R.%+}+S S x ..X.a@:@<@<@<@<@<@                  ",
"                  b@b@b@b@b@c@d@S [.J.e@f@f@f@f@g@h@J.&+L &+J.Y i@j@k@f@f@k@l@m@H.n@o@I p@;.w.x q@r@b@b@b@b@b@                  ",
"                s@t@t@t@t@t@u@v@).[.J.w@x@x@x@x@y@z@o@[.w.T 4+A@B@C@x@x@x@C@D@E@F@A@G@G@H@ @L w. .I@J@t@t@t@t@s@                ",
"                K@L@L@L@L@L@M@#.).[.J.N@O@O@O@O@P@/@(.S x m+~.Q@R@O@O@O@O@S@T@T@T@T@T@U@U@V@W@T x X@Y@L@L@L@L@K@                ",
"              Z@`@`@`@`@`@ #5 ( ).[.J..#+#+#+#+#@###$#x x S.%#&#*#+#+#+#+#+#+#+#+#+#+#+#+#R@T p@=#U.-#`@`@`@`@`@;#              ",
"              >#>#>#>#>#>#,#^ ( ).[.J.'#)#)#)#)#!###S.x x (.8@~#)#)#)#)#)#)#)#)#)#)#)#)#)#{#]#I S ^ ^#/#(#>#>#>#>#_#            ",
"              :#<#<#<#<#<#  ( ( ).[+U [#}#}#}#}#|#Y m+U.x $#1#2#}#}#}#}#}#}#}#}#}#}#}#}#}#+#S+(.x ^     <#<#<#<#<#              ",
"                3#4#4#4#      ( #.,+o@5#6#7#7#7#8#++w...>.}+L.6#7#7#7#7#7#7#7#7#7#7#7#7#7#9#m+[.>.^     4#4#4#4#4#              ",
"                0#0#0#0#      ( %@x }+I $+<+<+4+o@m+x } d S T a##+<+<+<+<+<+<+<+<+<+<+<+n@a#S.b#).        c#0#0#                ",
"                                d#e#f#g#h#i#i#h#j#k#..} } ..S w.!.}+}+}+}+}+$#l#i#i#i#i#m#h#n#o#p#                              ",
"                        q#q#q#q#r#r#s#s#s#s#s#s#s#t##.( / ^ } } ).#.#.#.#.#.n#u#s#s#s#s#s#s#s#r#v#q#q#q#q#                      ",
"                      w#w#w#w#w#w#w#w#w#w#w#w#w#w#x#y#( ( / ( ( ( ( ( ( (  .z#A#w#w#w#w#w#w#w#w#w#w#w#w#w#                      ",
"                      B#B#B#B#B#B#B#B#B#B#B#B#B#B#B#C#} ( ( ( ( ( ( ( ( ( D#E#B#B#B#B#B#B#B#B#B#B#B#B#B#B#B#                    ",
"                      F#F#F#F#F#F#F#F#F#F#F#F#F#F#F#G#H#^ ( ( ( ( ( ( ^ #.I#J#F#F#F#F#F#F#F#F#F#F#F#F#F#F#                      ",
"                        K#K#K#K#K#K#K#K#K#K#K#K#K#K#L#M#N#( ( ( ( ( ( ^ O#P#K#K#K#K#K#K#K#K#K#K#K#K#K#K#K#                      ",
"                                    Q#Q#Q#Q#Q#Q#Q#Q#R#Q#S#^ ( ( ( ( ( T#U#R#Q#Q#Q#Q#Q#Q#Q#R#                                    ",
"                                    V#V#V#V#V#V#V#V#V#V#W#X#( ( ( ( #.Y#V#V#V#V#V#V#V#V#V#V#                                    ",
"                                  Z#`#`#`#`#Z#`#`#`#`#`#Z# $        .$+$Z#`#`#`#`#Z#`#`#`#`#Z#                                  ",
"                                  @$@$@$@$@$@$@$#$@$@$@$@$$$        $$#$@$@$@$@$@$@$@$@$@$@$@$#$                                ",
"                                %$&$&$&$&$&$&$  &$&$&$&$&$&$*$      &$&$&$&$&$=$    &$&$&$&$&$&$                                ",
"                                -$;$;$;$;$;$      ;$;$;$;$;$-$    -$;$;$;$;$;$-$    ;$-$;$;$;$;$;$                              ",
"                              >$>$>$>$>$>$>$      >$>$>$>$>$,$    ,$>$>$>$>$>$        >$>$>$>$>$>$                              ",
"                              >$>$>$>$>$>$          ,$>$>$>$>$      ,$>$>$>$          >$,$>$>$>$>$                              ",
"                                '$'$'$'$            '$)$)$)$        )$)$)$'$            '$'$'$'$'$                              ",
"                                !$!$!$!$                                                ~$!$!$~$                                ",
"                                                                                                                                "};
